<svg width="34" height="32" viewBox="0 0 34 32" fill="none" xmlns="http://www.w3.org/2000/svg">
<rect width="34" height="32" rx="8" fill="#E0F0FF"/>
<path d="M17.3333 6C15.1239 6.00243 13.0057 6.88118 11.4435 8.44346C9.88118 10.0057 9.00243 12.1239 9 14.3333C9 18.735 16 24.7775 16.795 25.4525L17.3333 25.9075L17.8717 25.4525C18.6667 24.7775 25.6667 18.735 25.6667 14.3333C25.6642 12.1239 24.7855 10.0057 23.2232 8.44346C21.6609 6.88118 19.5427 6.00243 17.3333 6ZM17.3333 18.5C16.5092 18.5 15.7037 18.2556 15.0185 17.7978C14.3333 17.34 13.7992 16.6892 13.4838 15.9278C13.1685 15.1665 13.086 14.3287 13.2467 13.5205C13.4075 12.7122 13.8043 11.9698 14.3871 11.3871C14.9698 10.8043 15.7122 10.4075 16.5205 10.2467C17.3287 10.086 18.1665 10.1685 18.9278 10.4838C19.6892 10.7992 20.34 11.3333 20.7978 12.0185C21.2556 12.7037 21.5 13.5092 21.5 14.3333C21.4987 15.438 21.0593 16.497 20.2782 17.2782C19.497 18.0593 18.438 18.4987 17.3333 18.5Z" fill="#0866FF"/>
<path d="M17.333 16.833C18.7137 16.833 19.833 15.7137 19.833 14.333C19.833 12.9523 18.7137 11.833 17.333 11.833C15.9523 11.833 14.833 12.9523 14.833 14.333C14.833 15.7137 15.9523 16.833 17.333 16.833Z" fill="#0866FF"/>
</svg>
