<svg width="20" height="20" viewBox="0 0 20 20" fill="none" xmlns="http://www.w3.org/2000/svg">
    <path d="M9.30769 10.6923H4.69231C4.49615 10.6923 4.33177 10.6259 4.19915 10.4932C4.06638 10.3604 4 10.1959 4 9.99977C4 9.80346 4.06638 9.63908 4.19915 9.50662C4.33177 9.374 4.49615 9.30769 4.69231 9.30769H9.30769V4.69231C9.30769 4.49615 9.37408 4.33177 9.50685 4.19915C9.63962 4.06638 9.80408 4 10.0002 4C10.1965 4 10.3609 4.06638 10.4934 4.19915C10.626 4.33177 10.6923 4.49615 10.6923 4.69231V9.30769H15.3077C15.5038 9.30769 15.6682 9.37408 15.8008 9.50685C15.9336 9.63962 16 9.80408 16 10.0002C16 10.1965 15.9336 10.3609 15.8008 10.4934C15.6682 10.626 15.5038 10.6923 15.3077 10.6923H10.6923V15.3077C10.6923 15.5038 10.6259 15.6682 10.4932 15.8008C10.3604 15.9336 10.1959 16 9.99977 16C9.80346 16 9.63908 15.9336 9.50662 15.8008C9.374 15.6682 9.30769 15.5038 9.30769 15.3077V10.6923Z" fill="#0866FF"/>
</svg>
