<svg width="40" height="40" viewBox="0 0 40 40" fill="none" xmlns="http://www.w3.org/2000/svg">
    <path d="M29.263 30.8333V34.2629C29.263 34.4593 29.3367 34.6313 29.4842 34.7788C29.6314 34.9263 29.8034 35 30 35C30.1967 35 30.3687 34.9263 30.5159 34.7788C30.6634 34.6313 30.7371 34.4593 30.7371 34.2629V30.8333H34.1667C34.3634 30.8333 34.5353 30.7596 34.6825 30.6121C34.83 30.4646 34.9038 30.2926 34.9038 30.0963C34.9038 29.8996 34.83 29.7275 34.6825 29.58C34.5353 29.4328 34.3634 29.3592 34.1667 29.3592H30.7371V25.9296C30.7371 25.7329 30.6634 25.5608 30.5159 25.4133C30.3687 25.2661 30.1967 25.1925 30 25.1925C29.8034 25.1925 29.6314 25.2661 29.4842 25.4133C29.3367 25.5608 29.263 25.7329 29.263 25.9296V29.3592H25.8334C25.6367 29.3592 25.4648 29.4328 25.3175 29.58C25.17 29.7275 25.0963 29.8996 25.0963 30.0963C25.0963 30.2926 25.17 30.4646 25.3175 30.6121C25.4648 30.7596 25.6367 30.8333 25.8334 30.8333H29.263ZM8.84629 34.1667C8.01768 34.1667 7.30837 33.8717 6.71837 33.2817C6.12837 32.6917 5.83337 31.9824 5.83337 31.1538V8.84625C5.83337 8.01764 6.12837 7.30833 6.71837 6.71833C7.30837 6.12833 8.01768 5.83333 8.84629 5.83333H31.1538C31.9824 5.83333 32.6917 6.12833 33.2817 6.71833C33.8717 7.30833 34.1667 8.01764 34.1667 8.84625V17.2758C34.1667 17.63 34.0468 17.9268 33.8071 18.1662C33.5674 18.406 33.2705 18.5258 32.9163 18.5258C32.5618 18.5258 32.265 18.406 32.0259 18.1662C31.7864 17.9268 31.6667 17.63 31.6667 17.2758V8.84625C31.6667 8.71792 31.6132 8.60042 31.5063 8.49375C31.3996 8.3868 31.2821 8.33333 31.1538 8.33333H8.84629C8.71796 8.33333 8.60046 8.3868 8.49379 8.49375C8.38685 8.60042 8.33337 8.71792 8.33337 8.84625V31.1538C8.33337 31.2821 8.38685 31.3996 8.49379 31.5063C8.60046 31.6132 8.71796 31.6667 8.84629 31.6667H17.2759C17.63 31.6667 17.9268 31.7865 18.1663 32.0263C18.406 32.266 18.5259 32.5629 18.5259 32.9171C18.5259 33.2715 18.406 33.5683 18.1663 33.8075C17.9268 34.0469 17.63 34.1667 17.2759 34.1667H8.84629ZM8.33337 30.0054V31.6667V8.33333V18.6508V18.5258V30.0054ZM12.0834 26.475C12.0834 26.8292 12.2032 27.126 12.443 27.3654C12.6824 27.6046 12.9792 27.7242 13.3334 27.7242H17.5288C17.883 27.7242 18.1799 27.6043 18.4196 27.3646C18.6591 27.1251 18.7788 26.8282 18.7788 26.4738C18.7788 26.1196 18.6591 25.8228 18.4196 25.5833C18.1799 25.3442 17.883 25.2246 17.5288 25.2246H13.3334C12.9792 25.2246 12.6824 25.3443 12.443 25.5838C12.2032 25.8235 12.0834 26.1206 12.0834 26.475ZM12.0834 20.0004C12.0834 20.3549 12.2032 20.6517 12.443 20.8908C12.6824 21.1303 12.9792 21.25 13.3334 21.25H22.9009C23.255 21.25 23.5518 21.1301 23.7913 20.8904C24.031 20.6507 24.1509 20.3537 24.1509 19.9996C24.1509 19.6451 24.031 19.3483 23.7913 19.1092C23.5518 18.8697 23.255 18.75 22.9009 18.75H13.3334C12.9792 18.75 12.6824 18.8699 12.443 19.1096C12.2032 19.3493 12.0834 19.6463 12.0834 20.0004ZM12.0834 13.5263C12.0834 13.8804 12.2032 14.1772 12.443 14.4167C12.6824 14.6558 12.9792 14.7754 13.3334 14.7754H26.6667C27.0209 14.7754 27.3177 14.6557 27.5571 14.4162C27.7968 14.1765 27.9167 13.8794 27.9167 13.525C27.9167 13.1708 27.7968 12.874 27.5571 12.6346C27.3177 12.3954 27.0209 12.2758 26.6667 12.2758H13.3334C12.9792 12.2758 12.6824 12.3957 12.443 12.6354C12.2032 12.8749 12.0834 13.1718 12.0834 13.5263ZM30 37.5963C27.9189 37.5963 26.1486 36.8665 24.6892 35.4071C23.2298 33.9476 22.5 32.1774 22.5 30.0963C22.5 28.0151 23.2298 26.2449 24.6892 24.7854C26.1486 23.326 27.9189 22.5963 30 22.5963C32.0812 22.5963 33.8514 23.326 35.3109 24.7854C36.7703 26.2449 37.5 28.0151 37.5 30.0963C37.5 32.1774 36.7703 33.9476 35.3109 35.4071C33.8514 36.8665 32.0812 37.5963 30 37.5963Z" fill="#0866FF"/>
</svg>
