
<svg width="19" height="24" viewBox="0 0 19 24" fill="none" xmlns="http://www.w3.org/2000/svg">
    <path d="M13.7716 5.80271C13.9926 5.80271 14.3693 5.83881 14.9017 5.91103C15.434 5.98324 16.0167 6.18956 16.6495 6.52998C17.2924 6.86009 17.875 7.41199 18.3973 8.18569C18.3672 8.21663 18.2215 8.33011 17.9603 8.52611C17.6992 8.7118 17.4079 8.99033 17.0864 9.3617C16.765 9.72276 16.4837 10.187 16.2427 10.7544C16.0016 11.3114 15.881 11.9768 15.881 12.7505C15.881 13.6377 16.0317 14.3907 16.3331 15.0097C16.6445 15.6286 17.0011 16.129 17.4029 16.5106C17.8147 16.882 18.1763 17.1554 18.4877 17.3308C18.8091 17.5061 18.9799 17.599 19 17.6093C18.99 17.6505 18.8594 18.0168 18.6082 18.7079C18.3672 19.3991 17.9654 20.1676 17.4029 21.0135C16.9107 21.746 16.3783 22.4217 15.8057 23.0406C15.2432 23.6596 14.5652 23.9691 13.7716 23.9691C13.2392 23.9691 12.8023 23.8917 12.4607 23.7369C12.1192 23.5719 11.7676 23.412 11.406 23.2573C11.0444 23.0922 10.5572 23.0097 9.94449 23.0097C9.35184 23.0097 8.85461 23.0922 8.45282 23.2573C8.06106 23.4223 7.68438 23.5874 7.32276 23.7524C6.97119 23.9175 6.55432 24 6.07217 24C5.33888 24 4.69601 23.7008 4.14354 23.1025C3.59107 22.5042 3.02353 21.7872 2.44092 20.9516C1.76791 19.9613 1.19033 18.7544 0.708168 17.3308C0.236056 15.8968 0 14.4526 0 12.9981C0 11.4404 0.286281 10.1354 0.858842 9.08317C1.4314 8.02063 2.16468 7.22115 3.05868 6.68472C3.96273 6.13798 4.89691 5.8646 5.86122 5.8646C6.37351 5.8646 6.85567 5.95229 7.30769 6.12766C7.75971 6.29271 8.1816 6.46293 8.57335 6.6383C8.97515 6.81367 9.33677 6.90135 9.65821 6.90135C9.9696 6.90135 10.3312 6.80851 10.7431 6.62282C11.1549 6.43714 11.617 6.25661 12.1293 6.08124C12.6416 5.89555 13.189 5.80271 13.7716 5.80271ZM12.9429 3.83752C12.5511 4.32237 12.0589 4.72985 11.4663 5.05996C10.8736 5.37976 10.3111 5.53965 9.77875 5.53965C9.66825 5.53965 9.56278 5.52934 9.46233 5.5087C9.45229 5.47776 9.44224 5.42102 9.4322 5.33849C9.42215 5.25596 9.41713 5.16828 9.41713 5.07544C9.41713 4.45648 9.54771 3.85816 9.80888 3.28046C10.0701 2.69246 10.3664 2.20761 10.6979 1.82592C11.1197 1.31012 11.6521 0.882012 12.295 0.541586C12.9379 0.201161 13.5506 0.0206319 14.1332 0C14.1634 0.134107 14.1784 0.294004 14.1784 0.479691C14.1784 1.09865 14.0629 1.70213 13.8319 2.29014C13.6008 2.86783 13.3045 3.38362 12.9429 3.83752Z" fill="black"/>
</svg>
