<svg width="24" height="24" viewBox="0 0 24 24" fill="none" xmlns="http://www.w3.org/2000/svg">
    <path
        d="M4.77875 13.1285H21.8719C22.1921 13.1285 22.4601 13.0208 22.676 12.8053C22.8922 12.5901 23.0002 12.3229 23.0002 12.0037C23.0002 11.6845 22.8922 11.4173 22.676 11.2021C22.4601 10.9867 22.1921 10.8789 21.8719 10.8789H4.77875L9.73186 5.94141C9.95553 5.7182 10.066 5.45712 10.0632 5.15817C10.0602 4.85922 9.94976 4.5934 9.73186 4.36069C9.49842 4.12823 9.23037 4.00812 8.92772 4.00037C8.62482 3.99263 8.35665 4.10511 8.1232 4.33782L1.38502 11.0548C1.24409 11.1952 1.1448 11.3433 1.08713 11.4991C1.02921 11.6548 1.00024 11.823 1.00024 12.0037C1.00024 12.1844 1.02921 12.3527 1.08713 12.5084C1.1448 12.6641 1.24409 12.8122 1.38502 12.9527L8.1232 19.6696C8.34712 19.8926 8.61279 20.0027 8.9202 19.9999C9.22787 19.997 9.49842 19.8792 9.73186 19.6468C9.94976 19.4141 10.0626 19.1506 10.0704 18.8564C10.0781 18.5622 9.96531 18.2987 9.73186 18.066L4.77875 13.1285Z"
        fill="black" />
</svg>
