<svg width="10" height="10" viewBox="0 0 10 10" fill="none" xmlns="http://www.w3.org/2000/svg">
    <g clip-path="url(#clip0_2131_9617)">
        <path d="M4.01081 6.26433L7.83961 2.5215C7.99069 2.3738 8.16961 2.29996 8.37635 2.29996C8.5831 2.29996 8.76202 2.3738 8.9131 2.5215C9.06418 2.66919 9.13973 2.84409 9.13973 3.04619C9.13973 3.2483 9.06418 3.4232 8.9131 3.57089L4.54756 7.83842C4.39647 7.98611 4.21756 8.05996 4.01081 8.05996C3.80406 8.05996 3.62515 7.98611 3.47406 7.83842L1.44635 5.85623C1.29527 5.70854 1.21973 5.53364 1.21973 5.33154C1.21973 5.12943 1.29527 4.95453 1.44635 4.80684C1.59744 4.65915 1.77635 4.5853 1.9831 4.5853C2.18985 4.5853 2.36876 4.65915 2.51985 4.80684L4.01081 6.26433Z" fill="white"/>
    </g>
    <defs>
        <clipPath id="clip0_2131_9617">
            <rect width="8.64" height="8.64" fill="white" transform="translate(0.860352 0.860016)"/>
        </clipPath>
    </defs>
</svg>
