<svg width="28" height="28" viewBox="0 0 28 28" fill="none" xmlns="http://www.w3.org/2000/svg">
    <circle cx="14" cy="14" r="14" fill="#0866FF"/>
    <path d="M12.1489 16.3841L19.1285 8.58654C19.4039 8.27885 19.7301 8.125 20.107 8.125C20.4839 8.125 20.81 8.27885 21.0854 8.58654C21.3608 8.89423 21.4985 9.2586 21.4985 9.67966C21.4985 10.1007 21.3608 10.4651 21.0854 10.7728L13.1274 19.6635C12.852 19.9712 12.5258 20.125 12.1489 20.125C11.7721 20.125 11.4459 19.9712 11.1705 19.6635L7.47416 15.5339C7.19874 15.2262 7.06104 14.8618 7.06104 14.4408C7.06104 14.0197 7.19874 13.6554 7.47416 13.3477C7.74957 13.04 8.07572 12.8861 8.4526 12.8861C8.82948 12.8861 9.15563 13.04 9.43105 13.3477L12.1489 16.3841Z" fill="white"/>
</svg>
