<svg width="24" height="24" viewBox="0 0 24 24" fill="none" xmlns="http://www.w3.org/2000/svg">
    <path d="M19.5 11.1667H15.3333C13.955 11.1667 12.8333 12.2883 12.8333 13.6667V19.5C12.8333 20.8783 13.955 22 15.3333 22H19.5C20.8783 22 22 20.8783 22 19.5V13.6667C22 12.2883 20.8783 11.1667 19.5 11.1667ZM20.3333 19.5C20.3333 19.9592 19.96 20.3333 19.5 20.3333H15.3333C14.8733 20.3333 14.5 19.9592 14.5 19.5V13.6667C14.5 13.2075 14.8733 12.8333 15.3333 12.8333H19.5C19.96 12.8333 20.3333 13.2075 20.3333 13.6667V19.5ZM19.5 15.3308C19.5 15.7908 19.1275 16.1642 18.6667 16.1642H16.1667C15.7058 16.1642 15.3333 15.7908 15.3333 15.3308C15.3333 14.8708 15.7058 14.4975 16.1667 14.4975H18.6667C19.1275 14.4975 19.5 14.8708 19.5 15.3308ZM19.5 17.8333C19.5 18.2933 19.1275 18.6667 18.6667 18.6667H16.1667C15.7058 18.6667 15.3333 18.2933 15.3333 17.8333C15.3333 17.3733 15.7058 17 16.1667 17H18.6667C19.1275 17 19.5 17.3733 19.5 17.8333ZM9.5 12C12.2575 12 14.5 9.7575 14.5 7C14.5 4.2425 12.2575 2 9.5 2C6.7425 2 4.5 4.2425 4.5 7C4.5 9.7575 6.7425 12 9.5 12ZM9.5 3.66667C11.3383 3.66667 12.8333 5.16167 12.8333 7C12.8333 8.83833 11.3383 10.3333 9.5 10.3333C7.66167 10.3333 6.16667 8.83833 6.16667 7C6.16667 5.16167 7.66167 3.66667 9.5 3.66667ZM11.1667 14.5C11.1667 14.96 10.7942 15.3333 10.3333 15.3333H9.5C6.28417 15.3333 3.66667 17.95 3.66667 21.1667C3.66667 21.6267 3.29417 22 2.83333 22C2.3725 22 2 21.6267 2 21.1667C2 17.0317 5.36417 13.6667 9.5 13.6667H10.3333C10.7942 13.6667 11.1667 14.04 11.1667 14.5Z" fill="#43484B"/>
</svg>
