
<svg width="18" height="18" viewBox="0 0 18 18" fill="none" xmlns="http://www.w3.org/2000/svg">
    <g clip-path="url(#clip0_1_2100)">
        <path d="M4.15246 15.2591C3.28686 14.5884 2.60049 13.7938 2.09337 12.8752C1.58625 11.9566 1.26916 10.9976 1.14211 9.99797C1.01505 8.99839 1.08208 7.99061 1.34318 6.97463C1.6044 5.95873 2.07029 5.01804 2.74084 4.15254C3.41148 3.28694 4.20609 2.60058 5.12467 2.09345C6.04325 1.58633 7.00234 1.26924 8.00192 1.14219C9.00151 1.01513 10.0093 1.08216 11.0253 1.34327C12.0412 1.60448 12.9819 2.07037 13.8474 2.74092C14.713 3.41156 15.3993 4.20617 15.9064 5.12475C16.4136 6.04333 16.7307 7.00242 16.8577 8.002C16.9848 9.00159 16.9177 10.0094 16.6566 11.0253C16.3954 12.0412 15.9295 12.9819 15.259 13.8474C14.5883 14.713 13.7937 15.3994 12.8751 15.9065C11.9566 16.4136 10.9975 16.7307 9.99789 16.8578C8.99831 16.9848 7.99053 16.9178 6.97455 16.6567C5.95865 16.3955 5.01796 15.9296 4.15246 15.2591ZM4.86304 10.2549L7.34012 10.8623C7.40358 10.8764 7.45896 10.9017 7.50628 10.9384C7.55361 10.975 7.59198 11.0223 7.62141 11.0803L8.81821 13.3192C8.90729 13.4868 9.04557 13.5611 9.23305 13.5423C9.42073 13.5234 9.53671 13.4217 9.581 13.2371L11.4513 6.47169C11.5017 6.28512 11.4534 6.13489 11.3063 6.02099C11.1592 5.90701 11.0023 5.89826 10.8357 5.99474L4.752 9.49574C4.58431 9.58473 4.51477 9.72245 4.54338 9.90889C4.57196 10.0951 4.67852 10.2105 4.86304 10.2549Z" fill="#6B7073"/>
    </g>
    <defs>
        <clipPath id="clip0_1_2100">
            <rect width="18" height="18" fill="white"/>
        </clipPath>
    </defs>
</svg>
