<svg width="20" height="20" viewBox="0 0 20 20" fill="none" xmlns="http://www.w3.org/2000/svg">
    <g clip-path="url(#clip0_1_454)">
        <path d="M15.5944 10H11.6669C10.7464 10 10.0002 9.25379 10.0002 8.33332V4.395C10.0025 3.61805 9.64341 2.88414 9.02853 2.40918C8.44588 1.94777 7.68189 1.78332 6.96103 1.96418C2.06142 3.18043 -0.924553 8.13836 0.291736 13.038C1.14865 16.49 3.93021 19.1316 7.42189 19.8092C12.1918 20.7222 16.846 17.7566 18.0336 13.0475C18.2151 12.3257 18.051 11.5605 17.5894 10.9767C17.109 10.3629 16.3738 10.003 15.5944 10Z" fill="#0866FF"/>
        <path d="M19.7095 6.205C19.5193 5.49789 19.236 4.81918 18.867 4.18668C17.7572 2.28285 15.9444 0.890781 13.8187 0.31C13.6787 0.272227 13.3653 0.25 13.3653 0.25C13.2534 0.250039 12.7712 0.25 12.3895 0.55918C11.8285 1.00062 11.7403 1.5025 11.732 1.54168C11.7029 1.66457 11.6878 1.79039 11.687 1.91668V5.83336C11.687 7.21406 12.8063 8.33336 14.187 8.33336H18.1195C18.6412 8.33484 19.1323 8.08715 19.4412 7.66668C19.6696 7.35867 19.7871 6.98242 19.7745 6.59918C19.7679 6.46574 19.7461 6.33348 19.7095 6.205Z" fill="#1B3F7B"/>
    </g>
    <defs>
        <clipPath id="clip0_1_454">
            <rect width="20" height="20" fill="white"/>
        </clipPath>
    </defs>
</svg>
