<svg width="33" height="32" viewBox="0 0 33 32" fill="none" xmlns="http://www.w3.org/2000/svg">
    <path d="M6.3 28.4445C5.8092 28.4445 5.3865 28.2782 5.0319 27.9456C4.6773 27.613 4.5 27.2105 4.5 26.738C4.5 26.2727 4.6773 25.8719 5.0319 25.5358C5.3865 25.1996 5.8092 25.0315 6.3 25.0315H26.7C27.1908 25.0315 27.6135 25.1978 27.9681 25.5304C28.3227 25.8629 28.5 26.2655 28.5 26.738C28.5 27.2033 28.3227 27.604 27.9681 27.9402C27.6135 28.2764 27.1908 28.4445 26.7 28.4445H6.3ZM9.3 19.8136H10.7838L20.7438 10.3884L19.9893 9.66232L19.2417 8.96437L9.3 18.4069V19.8136ZM7.5 20.4917V18.1094C7.5 17.9723 7.5242 17.8418 7.5726 17.7178C7.6212 17.5938 7.7016 17.4785 7.8138 17.3719L20.9517 4.94531C21.1255 4.78054 21.3228 4.65587 21.5436 4.57131C21.7642 4.48674 21.9922 4.44446 22.2276 4.44446C22.4708 4.44446 22.702 4.48674 22.9212 4.57131C23.1404 4.65587 23.3431 4.78642 23.5293 4.96295L24.9714 6.34776C25.1576 6.51253 25.2922 6.70062 25.3752 6.91203C25.4584 7.12364 25.5 7.34463 25.5 7.575C25.5 7.78661 25.4584 7.99698 25.3752 8.20612C25.2922 8.41545 25.1576 8.60838 24.9714 8.7849L11.8638 21.2115C11.7514 21.3181 11.6299 21.3961 11.4993 21.4456C11.3685 21.4953 11.2308 21.5201 11.0862 21.5201H8.5848C8.2754 21.5201 8.0173 21.422 7.8105 21.2257C7.6035 21.0297 7.5 20.785 7.5 20.4917ZM20.7438 10.3884L19.9893 9.66232L19.2417 8.96437L20.7438 10.3884Z" fill="#43484B"/>
</svg>
