<svg width="17" height="21" viewBox="0 0 17 21" fill="none" xmlns="http://www.w3.org/2000/svg">
    <path d="M5.03455 11.2226H11.9655C12.2063 11.2226 12.4081 11.1431 12.5709 10.9841C12.7339 10.8253 12.8155 10.6284 12.8155 10.3933C12.8155 10.1583 12.7339 9.96146 12.5709 9.80285C12.4081 9.64407 12.2063 9.56467 11.9655 9.56467H5.03455C4.79372 9.56467 4.59189 9.64416 4.42907 9.80313C4.26606 9.9621 4.18455 10.1591 4.18455 10.3942C4.18455 10.629 4.26606 10.8259 4.42907 10.9847C4.59189 11.1433 4.79372 11.2226 5.03455 11.2226ZM5.03455 14.411H11.9655C12.2063 14.411 12.4081 14.3315 12.5709 14.1725C12.7339 14.0135 12.8155 13.8165 12.8155 13.5815C12.8155 13.3466 12.7339 13.1498 12.5709 12.991C12.4081 12.8324 12.2063 12.7531 11.9655 12.7531H5.03455C4.79372 12.7531 4.59189 12.8326 4.42907 12.9915C4.26606 13.1505 4.18455 13.3474 4.18455 13.5823C4.18455 13.8174 4.26606 14.0142 4.42907 14.1728C4.59189 14.3316 4.79372 14.411 5.03455 14.411ZM5.03455 17.5991H8.56545C8.80628 17.5991 9.00811 17.5196 9.17093 17.3606C9.33394 17.2017 9.41545 17.0048 9.41545 16.7699C9.41545 16.5348 9.33394 16.338 9.17093 16.1794C9.00811 16.0206 8.80628 15.9412 8.56545 15.9412H5.03455C4.79372 15.9412 4.59189 16.0207 4.42907 16.1797C4.26606 16.3386 4.18455 16.5357 4.18455 16.7707C4.18455 17.0056 4.26606 17.2024 4.42907 17.3612C4.59189 17.5198 4.79372 17.5991 5.03455 17.5991ZM2.04878 21C1.47626 21 0.991667 20.8066 0.595 20.4197C0.198333 20.0329 0 19.5603 0 19.002V1.99804C0 1.4397 0.198333 0.967105 0.595 0.580263C0.991667 0.193421 1.47626 0 2.04878 0H10.2023C10.4786 0 10.742 0.051763 10.9925 0.155289C11.2429 0.258631 11.4612 0.401027 11.6473 0.582474L16.4027 5.22016C16.5888 5.4016 16.7348 5.61446 16.8408 5.85872C16.9469 6.10299 17 6.35987 17 6.62937V19.002C17 19.5603 16.8017 20.0329 16.405 20.4197C16.0083 20.8066 15.5237 21 14.9512 21H2.04878ZM15.3 6.63158H11.7365C11.3098 6.63158 10.9471 6.48587 10.6482 6.19445C10.3494 5.90303 10.2 5.54925 10.2 5.13312V1.65789H2.04878C1.96152 1.65789 1.88162 1.69335 1.80908 1.76428C1.73636 1.83501 1.7 1.91293 1.7 1.99804V19.002C1.7 19.0871 1.73636 19.165 1.80908 19.2357C1.88162 19.3066 1.96152 19.3421 2.04878 19.3421H14.9512C15.0385 19.3421 15.1184 19.3066 15.1909 19.2357C15.2636 19.165 15.3 19.0871 15.3 19.002V6.63158Z" fill="#43484B"/>
</svg>
