<svg width="24" height="24" viewBox="0 0 24 24" fill="none" xmlns="http://www.w3.org/2000/svg">
    <path d="M12 2C9.53792 2.00176 7.16344 2.91385 5.33333 4.56083V2.83333C5.33333 2.61232 5.24554 2.40036 5.08926 2.24408C4.93297 2.0878 4.72101 2 4.5 2C4.27899 2 4.06702 2.0878 3.91074 2.24408C3.75446 2.40036 3.66667 2.61232 3.66667 2.83333V5.33333C3.66667 5.99637 3.93006 6.63226 4.3989 7.1011C4.86774 7.56994 5.50362 7.83333 6.16667 7.83333H8.66667C8.88768 7.83333 9.09964 7.74553 9.25592 7.58925C9.4122 7.43297 9.5 7.22101 9.5 7C9.5 6.77899 9.4122 6.56702 9.25592 6.41074C9.09964 6.25446 8.88768 6.16667 8.66667 6.16667H6.16667C6.13856 6.1625 6.11074 6.15666 6.08333 6.14917C7.44127 4.78152 9.23177 3.92756 11.1492 3.73305C13.0667 3.53855 14.9922 4.01555 16.5971 5.08263C18.202 6.14972 19.3868 7.74074 19.9493 9.58412C20.5118 11.4275 20.4171 13.409 19.6813 15.1903C18.9455 16.9716 17.6144 18.4423 15.915 19.3515C14.2156 20.2606 12.2533 20.5517 10.3632 20.1752C8.47303 19.7986 6.77215 18.7778 5.55088 17.2868C4.3296 15.7959 3.66364 13.9273 3.66667 12C3.66667 11.779 3.57887 11.567 3.42259 11.4107C3.26631 11.2545 3.05435 11.1667 2.83333 11.1667C2.61232 11.1667 2.40036 11.2545 2.24408 11.4107C2.0878 11.567 2 11.779 2 12C2 13.9778 2.58649 15.9112 3.6853 17.5557C4.78412 19.2002 6.3459 20.4819 8.17316 21.2388C10.0004 21.9957 12.0111 22.1937 13.9509 21.8078C15.8907 21.422 17.6725 20.4696 19.0711 19.0711C20.4696 17.6725 21.422 15.8907 21.8078 13.9509C22.1937 12.0111 21.9957 10.0004 21.2388 8.17316C20.4819 6.3459 19.2002 4.78412 17.5557 3.6853C15.9112 2.58649 13.9778 2 12 2Z" fill="#43484B"/>
    <path d="M11.802 8C11.5893 8 11.3853 8.08439 11.2349 8.2346C11.0845 8.38482 11 8.58855 11 8.80098V12.8059C11 13.0183 11.0846 13.222 11.235 13.3722L13.6409 15.7752C13.7921 15.9211 13.9947 16.0018 14.205 16C14.4153 15.9981 14.6164 15.9139 14.7651 15.7654C14.9138 15.6169 14.9981 15.416 15 15.206C15.0018 14.996 14.921 14.7936 14.7749 14.6426L12.6039 12.4743V8.80098C12.6039 8.58855 12.5194 8.38482 12.3691 8.2346C12.2187 8.08439 12.0147 8 11.802 8Z" fill="#43484B"/>
</svg>
