<svg width="22" height="24" viewBox="0 0 22 24" fill="none" xmlns="http://www.w3.org/2000/svg">
<path d="M21.655 10.8302C21.6543 12.489 21.2727 14.1255 20.5396 15.6135C19.8064 17.1015 18.7413 18.4013 17.4264 19.4125C16.1114 20.4237 14.5818 21.1195 12.9555 21.446C11.3291 21.7726 9.64947 21.7213 8.04609 21.296L3.66346 23.827C3.44232 23.9547 3.18829 24.0139 2.93347 23.9972C2.67866 23.9806 2.43452 23.8887 2.23193 23.7332C2.02934 23.5778 1.87739 23.3657 1.79532 23.1239C1.71324 22.8821 1.70472 22.6214 1.77083 22.3748L2.89092 18.1964C1.036 16.1914 0.00390649 13.5616 0 10.8302C0 4.85816 4.85687 0 10.8273 0C16.7977 0 21.655 4.85816 21.655 10.8302ZM7.81706 10.8302C7.81706 10.4878 7.68105 10.1594 7.43894 9.91732C7.19683 9.6752 6.86845 9.53919 6.52605 9.53919H6.5239C6.26867 9.53966 6.0193 9.61578 5.80731 9.75793C5.59532 9.90008 5.43023 10.1019 5.33289 10.3378C5.23554 10.5738 5.21032 10.8333 5.2604 11.0835C5.31049 11.3338 5.43364 11.5636 5.61428 11.7439C5.79493 11.9242 6.02497 12.047 6.27533 12.0966C6.5257 12.1462 6.78516 12.1205 7.02092 12.0227C7.25668 11.9249 7.45816 11.7594 7.59991 11.5472C7.74166 11.3349 7.81706 11.0854 7.81706 10.8302ZM12.1185 10.8302C12.1184 10.7879 12.1161 10.7457 12.1117 10.7037C12.1076 10.6615 12.1013 10.6195 12.0928 10.578C12.0851 10.5367 12.0747 10.4958 12.0617 10.4558C12.0498 10.4154 12.0351 10.3758 12.0196 10.3362C12.0042 10.2966 11.9852 10.2596 11.9654 10.2226C11.9458 10.1853 11.9242 10.1491 11.9009 10.1141C11.8773 10.0787 11.852 10.0445 11.825 10.0117C11.7985 9.9788 11.7701 9.94747 11.7399 9.91788C11.7107 9.88776 11.6788 9.85936 11.6461 9.83181C11.6133 9.80599 11.5789 9.78018 11.5436 9.75694C11.5086 9.7336 11.4724 9.71205 11.4352 9.69239C11.3982 9.67259 11.3595 9.65452 11.3207 9.63816C11.2819 9.62193 11.2423 9.60786 11.202 9.59599C11.1215 9.57014 11.0384 9.55339 10.9541 9.54607C10.8277 9.5339 10.7001 9.53998 10.5754 9.56415C10.5339 9.57262 10.4929 9.58325 10.4524 9.59599C10.4121 9.60783 10.3724 9.62191 10.3337 9.63816C10.2949 9.65452 10.2562 9.67259 10.2192 9.69239C10.1822 9.71218 10.146 9.7337 10.1107 9.75694C10.04 9.80383 9.97431 9.85775 9.91453 9.91788C9.88432 9.94749 9.85584 9.97882 9.82923 10.0117C9.80258 10.0445 9.77762 10.0787 9.75444 10.1141C9.73079 10.1491 9.70895 10.1853 9.68903 10.2226C9.66917 10.2594 9.65133 10.2974 9.63558 10.3362C9.61924 10.3753 9.60488 10.4152 9.59255 10.4558C9.58059 10.4954 9.57026 10.5367 9.56165 10.578C9.55315 10.6195 9.5468 10.6615 9.54263 10.7037C9.53841 10.7459 9.5366 10.788 9.5366 10.8302C9.5366 10.8724 9.53841 10.9154 9.54263 10.9576C9.54686 10.9995 9.55321 11.0411 9.56165 11.0824C9.57026 11.1237 9.58059 11.165 9.59255 11.2055C9.60488 11.2457 9.61925 11.2854 9.63558 11.3242C9.65133 11.3633 9.66917 11.4015 9.68903 11.4387C9.70874 11.4757 9.7312 11.5119 9.75444 11.5471C9.77762 11.5822 9.80259 11.6161 9.82923 11.6487C9.85606 11.6817 9.88452 11.7133 9.91453 11.7434C9.94465 11.7726 9.97563 11.8019 10.0092 11.8286C10.0416 11.8555 10.0754 11.8805 10.1107 11.9035C10.146 11.9267 10.1821 11.9491 10.2192 11.9689C10.294 12.0078 10.372 12.0401 10.4524 12.0653C10.4928 12.0773 10.5341 12.0876 10.5754 12.0962C10.6584 12.1132 10.7429 12.1216 10.8276 12.1212C11.1696 12.1203 11.4974 11.9845 11.7399 11.7434C11.7994 11.683 11.8533 11.6173 11.9009 11.5471C11.9241 11.5119 11.9456 11.4757 11.9654 11.4387C11.9852 11.4017 12.0033 11.363 12.0196 11.3242C12.036 11.2855 12.0498 11.245 12.0617 11.2055C12.0746 11.1651 12.085 11.124 12.0928 11.0824C12.1012 11.0411 12.1075 10.9995 12.1117 10.9576C12.1161 10.9152 12.1185 10.8728 12.1185 10.8302ZM16.4219 10.8302C16.4219 10.4878 16.2859 10.1594 16.0438 9.91732C15.8017 9.6752 15.4733 9.53919 15.1309 9.53919H15.1284C14.8732 9.53968 14.6238 9.61582 14.4118 9.75797C14.1999 9.90013 14.0348 10.1019 13.9374 10.3379C13.8401 10.5738 13.8149 10.8333 13.865 11.0836C13.9151 11.3339 14.0382 11.5637 14.2189 11.744C14.3995 11.9243 14.6296 12.047 14.8799 12.0966C15.1303 12.1462 15.3898 12.1205 15.6255 12.0227C15.8613 11.9249 16.0628 11.7594 16.2045 11.5472C16.3463 11.3349 16.4219 11.0854 16.4219 10.8302Z" fill="#0866FF"/>
</svg>
