<svg width="20" height="20" viewBox="0 0 20 20" fill="none" xmlns="http://www.w3.org/2000/svg">
<path d="M19.9421 15.3852C19.8108 14.6539 19.4627 13.9887 18.9355 13.4615C18.4083 12.9343 17.7431 12.5862 17.0118 12.4549C16.3331 12.3332 15.6425 12.4043 15.0074 12.6606L7.33935 4.99251C7.59556 4.35736 7.66677 3.66681 7.54497 2.98814C7.41372 2.25685 7.06564 1.59165 6.53841 1.06439C6.01118 0.537121 5.34599 0.189113 4.61466 0.0578634C3.90032 -0.0702616 3.17255 0.0152853 2.51028 0.305598C2.41028 0.349387 2.38466 0.484543 2.462 0.561887L5.30989 3.40978L3.7463 4.97337L0.89837 2.12552C0.821105 2.04818 0.68587 2.07376 0.642081 2.1738C0.351808 2.83607 0.266183 3.56376 0.394386 4.27814C0.525636 5.00946 0.873722 5.67466 1.40095 6.20189C1.92817 6.72911 2.59341 7.0772 3.3247 7.20845C4.00341 7.33021 4.69396 7.25907 5.32907 7.00282L12.9972 14.6709C12.7409 15.3061 12.6697 15.9966 12.7916 16.6753C12.9228 17.4066 13.2709 18.0718 13.7981 18.599C14.3254 19.1263 14.9906 19.4743 15.7219 19.6056C15.9358 19.6441 16.1527 19.6634 16.37 19.6635C16.8714 19.6636 17.3672 19.5595 17.8263 19.3579C17.9263 19.3141 17.9519 19.179 17.8745 19.1016L15.0267 16.2537L16.5903 14.6901L19.4382 17.538C19.5154 17.6153 19.6507 17.5897 19.6945 17.4897C19.9846 16.8274 20.0703 16.0997 19.9421 15.3852Z" fill="#8E9AA9"/>
<path d="M17.7885 19.0154C17.5807 19.0521 17.3702 19.0706 17.1592 19.0707C16.9418 19.0706 16.7249 19.0512 16.511 19.0127C15.7797 18.8815 15.1145 18.5334 14.5873 18.0062C14.06 17.4789 13.712 16.8137 13.5807 16.0824C13.4589 15.4037 13.5301 14.7132 13.7863 14.078L6.11825 6.41C5.48314 6.66621 4.79259 6.73738 4.11388 6.61562C3.38259 6.48437 2.71739 6.13628 2.19013 5.60906C1.66286 5.08183 1.31482 4.41664 1.18357 3.68531C1.10755 3.26307 1.10677 2.83071 1.18126 2.4082L0.89837 2.12531C0.821105 2.04796 0.68587 2.07355 0.642081 2.17359C0.351808 2.83589 0.266183 3.56359 0.394386 4.27796C0.525636 5.00929 0.873722 5.67449 1.40095 6.20171C1.92817 6.72894 2.59341 7.07703 3.3247 7.20828C4.00341 7.33003 4.69396 7.2589 5.32907 7.00265L12.9972 14.6707C12.7409 15.3059 12.6697 15.9964 12.7916 16.6751C12.9228 17.4064 13.2709 18.0716 13.7981 18.5989C14.3254 19.1261 14.9906 19.4742 15.7219 19.6054C15.9358 19.6439 16.1527 19.6633 16.37 19.6634C16.8714 19.6634 17.3672 19.5593 17.8263 19.3577C17.9263 19.3139 17.9519 19.1788 17.8745 19.1014L17.7885 19.0154Z" fill="#7C899B"/>
<path d="M16.3984 4.37546L15.5049 3.48195C15.4456 3.42273 15.3653 3.38947 15.2815 3.38947C15.1978 3.38947 15.1174 3.42273 15.0581 3.48195L4.55983 13.9803C4.50061 14.0396 4.46735 14.1199 4.46735 14.2037C4.46735 14.2875 4.50061 14.3678 4.55983 14.4271L5.45334 15.3206C5.48264 15.35 5.51746 15.3732 5.55579 15.3891C5.59412 15.405 5.63521 15.4131 5.6767 15.4131C5.71819 15.4131 5.75928 15.405 5.79761 15.3891C5.83595 15.3732 5.87076 15.35 5.90006 15.3206L16.3984 4.8223C16.4576 4.76304 16.4909 4.68268 16.4909 4.59889C16.4909 4.51509 16.4577 4.43473 16.3984 4.37546Z" fill="#C7CCD4"/>
<path d="M19.7487 1.02498L18.8552 0.131546C18.8044 0.0807451 18.7377 0.0487888 18.6663 0.0409489C18.5949 0.033109 18.5229 0.0498539 18.4622 0.0884215L16.0053 1.6519C15.957 1.6826 15.9179 1.72588 15.8924 1.77709L14.9987 3.56416C14.9691 3.62347 14.9589 3.69059 14.9695 3.75603C14.9801 3.82147 15.011 3.88192 15.0579 3.92881L15.9514 4.82233C15.9983 4.86924 16.0587 4.9002 16.1242 4.91082C16.1896 4.92143 16.2567 4.91116 16.316 4.88147L18.103 3.98795C18.1542 3.96233 18.1974 3.9233 18.2282 3.87502L19.7918 1.41795C19.8303 1.35731 19.8471 1.28534 19.8393 1.2139C19.8314 1.14246 19.7995 1.07582 19.7487 1.02498Z" fill="#8E9AA9"/>
<path d="M9.92078 13.5337L6.34688 9.95979C6.28762 9.90057 6.20727 9.86731 6.1235 9.86731C6.03972 9.86731 5.95938 9.90057 5.90012 9.95979L0.539258 15.3207C0.480042 15.3799 0.446777 15.4603 0.446777 15.544C0.446777 15.6278 0.480042 15.7081 0.539258 15.7674L4.11316 19.3413C4.17488 19.403 4.25566 19.4338 4.33652 19.4338C4.41738 19.4338 4.4982 19.403 4.55988 19.3413L9.92074 13.9805C9.95008 13.9511 9.97335 13.9163 9.98923 13.878C10.0051 13.8396 10.0133 13.7986 10.0133 13.7571C10.0133 13.7156 10.0051 13.6745 9.98925 13.6362C9.97338 13.5979 9.95011 13.563 9.92078 13.5337Z" fill="#7D9EC9"/>
<path d="M7.52155 11.1344L8.7062 12.3191L2.89857 18.1265L1.71392 16.9418L7.52155 11.1344Z" fill="#537BB7"/>
<path d="M9.92077 13.5329L8.70636 12.3185L2.89874 18.1261L4.11316 19.3406C4.17488 19.4022 4.25566 19.4331 4.33652 19.4331C4.41738 19.4331 4.4982 19.4022 4.55988 19.3406L9.92074 13.9797C9.97997 13.9204 10.0132 13.8401 10.0133 13.7563C10.0133 13.6725 9.98 13.5922 9.92077 13.5329Z" fill="#3C6994"/>
<path d="M2.99631 19.8799C3.02975 19.8799 3.06342 19.8746 3.09612 19.8637L4.43631 19.417L0.462912 15.4435L0.0161933 16.7837C-0.00234543 16.8394 -0.00502442 16.8991 0.00845627 16.9562C0.021937 17.0133 0.0510451 17.0655 0.0925214 17.107L2.77295 19.7874C2.83221 19.8466 2.91255 19.8799 2.99631 19.8799Z" fill="#0866FF"/>
<path d="M9.02726 9.95981C8.96799 9.90063 8.88767 9.86736 8.8039 9.86731H6.12347L10.0133 13.7571V11.0767C10.0132 10.9929 9.97996 10.9126 9.92078 10.8533L9.02726 9.95981Z" fill="#A8C6E3"/>
</svg>
