<svg width="20" height="20" viewBox="0 0 20 20" fill="none" xmlns="http://www.w3.org/2000/svg">
    <path d="M10.4168 18.3333C8.03885 16.6339 6.2638 14.9836 5.09168 13.3823C3.91956 11.781 3.3335 10.2124 3.3335 8.67643C3.3335 6.63395 3.99123 4.95502 5.30671 3.63967C6.62219 2.32431 8.32556 1.66663 10.4168 1.66663C12.5081 1.66663 14.2115 2.32431 15.5269 3.63967C16.8424 4.95502 17.5002 6.63395 17.5002 8.67643C17.5002 10.2124 16.9141 11.781 15.742 13.3823C14.5699 14.9836 12.7948 16.6339 10.4168 18.3333ZM10.4168 10.4902C10.9734 10.4902 11.4498 10.2982 11.8461 9.91418C12.2425 9.53019 12.4406 9.06859 12.4406 8.52937C12.4406 7.99016 12.2425 7.52855 11.8461 7.14457C11.4498 6.76058 10.9734 6.56859 10.4168 6.56859C9.86028 6.56859 9.38384 6.76058 8.98751 7.14457C8.59119 7.52855 8.39302 7.99016 8.39302 8.52937C8.39302 9.06859 8.59119 9.53019 8.98751 9.91418C9.38384 10.2982 9.86028 10.4902 10.4168 10.4902Z" fill="#5F6368"/>
</svg>
