<svg width="28" height="28" viewBox="0 0 28 28" fill="none" xmlns="http://www.w3.org/2000/svg">
<path d="M14 15.75C13.1849 15.75 12.495 15.4677 11.9304 14.903C11.3657 14.3384 11.0834 13.6485 11.0834 12.8334V5.83335C11.0834 5.01824 11.3657 4.32835 11.9304 3.76369C12.495 3.19902 13.1849 2.91669 14 2.91669C14.8152 2.91669 15.505 3.19902 16.0697 3.76369C16.6344 4.32835 16.9167 5.01824 16.9167 5.83335V12.8334C16.9167 13.6485 16.6344 14.3384 16.0697 14.903C15.505 15.4677 14.8152 15.75 14 15.75ZM13.125 23.3334V20.3627C11.3885 20.1623 9.90018 19.4488 8.66021 18.2225C7.42043 16.9959 6.69428 15.5009 6.48175 13.7375C6.45044 13.4892 6.51549 13.2765 6.67688 13.0994C6.83846 12.922 7.0434 12.8334 7.29171 12.8334C7.54001 12.8334 7.74788 12.919 7.91529 13.0903C8.0829 13.2614 8.19442 13.4711 8.24983 13.7194C8.46217 15.148 9.1154 16.3297 10.2095 17.2644C11.3037 18.1992 12.5672 18.6667 14 18.6667C15.4523 18.6667 16.7207 18.1944 17.8051 17.2498C18.8895 16.3054 19.5379 15.1286 19.7503 13.7194C19.8057 13.4711 19.9172 13.2614 20.0848 13.0903C20.2522 12.919 20.4601 12.8334 20.7084 12.8334C20.9567 12.8334 21.1616 12.922 21.3232 13.0994C21.4846 13.2765 21.5496 13.4892 21.5183 13.7375C21.3058 15.462 20.5845 16.9455 19.3545 18.1878C18.1242 19.4299 16.6311 20.1549 14.875 20.3627V23.3334C14.875 23.5817 14.7912 23.7895 14.6236 23.9569C14.4562 24.1245 14.2483 24.2084 14 24.2084C13.7517 24.2084 13.5439 24.1245 13.3765 23.9569C13.2088 23.7895 13.125 23.5817 13.125 23.3334Z" fill="#0866FF"/>
</svg>
