<svg width="23" height="22" viewBox="0 0 23 22" fill="none" xmlns="http://www.w3.org/2000/svg">
<path d="M21.1286 22C18.6898 22 16.2397 21.433 13.7783 20.2989C11.3171 19.1648 9.05574 17.5651 6.99421 15.4996C4.93289 13.434 3.3352 11.1725 2.20112 8.71524C1.06704 6.25814 0.5 3.81021 0.5 1.37144C0.5 0.97954 0.629412 0.65299 0.888235 0.391794C1.14706 0.130598 1.47059 0 1.85882 0H6.07959C6.40635 0 6.69462 0.106657 6.94438 0.319971C7.19415 0.533069 7.353 0.796422 7.42094 1.11003L8.16279 4.91765C8.21413 5.27094 8.20334 5.57452 8.13044 5.82838C8.05732 6.08225 7.92619 6.29545 7.73703 6.468L4.74826 9.3775C5.22925 10.2584 5.77881 11.0917 6.39697 11.8774C7.01491 12.6629 7.68397 13.4132 8.40415 14.1282C9.11419 14.8385 9.86909 15.498 10.6689 16.1069C11.4686 16.7158 12.3322 17.2824 13.2597 17.8067L16.1637 14.8775C16.3662 14.6668 16.6114 14.519 16.8994 14.4343C17.1871 14.3497 17.4862 14.329 17.7965 14.3721L21.39 15.104C21.7167 15.1902 21.9834 15.357 22.1901 15.6041C22.3967 15.8513 22.5 16.1317 22.5 16.4453V20.6412C22.5 21.0294 22.3694 21.3529 22.1082 21.6118C21.847 21.8706 21.5205 22 21.1286 22ZM3.82976 7.54082L6.13944 5.33079C6.18085 5.29758 6.20781 5.25196 6.22032 5.19394C6.23283 5.13592 6.23078 5.082 6.21418 5.03218L5.65156 2.14015C5.63495 2.07393 5.60594 2.02421 5.56453 1.991C5.52312 1.95778 5.4692 1.94118 5.40277 1.94118H2.63529C2.58547 1.94118 2.54395 1.95778 2.51074 1.991C2.47774 2.02421 2.46124 2.06574 2.46124 2.11556C2.52745 2.99987 2.67218 3.89821 2.89541 4.81056C3.11843 5.72313 3.42988 6.63322 3.82976 7.54082ZM15.0886 18.7249C15.9464 19.1248 16.841 19.4305 17.7726 19.6421C18.7044 19.8535 19.575 19.9791 20.3844 20.019C20.4343 20.019 20.4758 20.0024 20.509 19.9692C20.5422 19.936 20.5588 19.8945 20.5588 19.8446V17.1221C20.5588 17.0557 20.5422 17.0018 20.509 16.9604C20.4758 16.919 20.4261 16.89 20.3599 16.8734L17.6422 16.3208C17.5924 16.3042 17.5488 16.3021 17.5115 16.3146C17.4742 16.3271 17.4347 16.3541 17.3931 16.3955L15.0886 18.7249Z" fill="black"/>
</svg>
