<svg width="33" height="32" viewBox="0 0 33 32" fill="none" xmlns="http://www.w3.org/2000/svg">
    <path d="M6.27734 14.155V7.30939C6.27734 7.00132 6.38157 6.74316 6.59002 6.53491C6.79828 6.32646 7.05644 6.22223 7.36451 6.22223H14.2101C14.518 6.22223 14.7761 6.32646 14.9846 6.53491C15.1928 6.74316 15.297 7.00132 15.297 7.30939V14.155C15.297 14.4628 15.1928 14.721 14.9846 14.9295C14.7761 15.1377 14.518 15.2418 14.2101 15.2418H7.36451C7.05644 15.2418 6.79828 15.1377 6.59002 14.9295C6.38157 14.721 6.27734 14.4628 6.27734 14.155ZM8.08127 13.4379H13.493V8.02615H8.08127V13.4379ZM6.27734 25.5795V18.7339C6.27734 18.4261 6.38157 18.1679 6.59002 17.9594C6.79828 17.7512 7.05644 17.6471 7.36451 17.6471H14.2101C14.518 17.6471 14.7761 17.7512 14.9846 17.9594C15.1928 18.1679 15.297 18.4261 15.297 18.7339V25.5795C15.297 25.8876 15.1928 26.1457 14.9846 26.354C14.7761 26.5624 14.518 26.6667 14.2101 26.6667H7.36451C7.05644 26.6667 6.79828 26.5624 6.59002 26.354C6.38157 26.1457 6.27734 25.8876 6.27734 25.5795ZM8.08127 24.8628H13.493V19.451H8.08127V24.8628ZM17.7022 14.155V7.30939C17.7022 7.00132 17.8063 6.74316 18.0146 6.53491C18.223 6.32646 18.4812 6.22223 18.789 6.22223H25.6346C25.9427 6.22223 26.2009 6.32646 26.4091 6.53491C26.6176 6.74316 26.7218 7.00132 26.7218 7.30939V14.155C26.7218 14.4628 26.6176 14.721 26.4091 14.9295C26.2009 15.1377 25.9427 15.2418 25.6346 15.2418H18.789C18.4812 15.2418 18.223 15.1377 18.0146 14.9295C17.8063 14.721 17.7022 14.4628 17.7022 14.155ZM19.5061 13.4379H24.9179V8.02615H19.5061V13.4379ZM24.4669 26.6667V24.4118H26.7218V26.6667H24.4669ZM17.7022 19.902V17.6471H19.9571V19.902H17.7022ZM19.9571 22.1569V19.902H22.212V22.1569H19.9571ZM17.7022 24.4118V22.1569H19.9571V24.4118H17.7022ZM19.9571 26.6667V24.4118H22.212V26.6667H19.9571ZM22.212 24.4118V22.1569H24.4669V24.4118H22.212ZM22.212 19.902V17.6471H24.4669V19.902H22.212ZM24.4669 22.1569V19.902H26.7218V22.1569H24.4669Z" fill="#43484B"/>
</svg>
