<svg width="24" height="24" viewBox="0 0 24 24" fill="none" xmlns="http://www.w3.org/2000/svg">
    <path d="M8.20064 19.6814L12.5 16.9625L16.7994 19.7172L15.6733 14.5655L19.4609 11.131L14.4791 10.6659L12.5 5.80045L10.5209 10.6302L5.53913 11.0952L9.32666 14.5655L8.20064 19.6814ZM12.5 19.4861L7.19029 22.8433C6.99238 22.9644 6.79413 23.0153 6.59554 22.996C6.39695 22.9767 6.21724 22.9066 6.05642 22.7857C5.89536 22.6645 5.77104 22.5062 5.68346 22.3109C5.59611 22.1156 5.58212 21.8995 5.64149 21.6627L7.05107 15.3415L2.3634 11.087C2.18824 10.9275 2.07666 10.7426 2.02866 10.5325C1.98044 10.3224 1.99306 10.1182 2.06654 9.92001C2.14002 9.72206 2.24591 9.56023 2.38422 9.43454C2.52252 9.30885 2.71156 9.22668 2.95132 9.18804L9.13763 8.62136L11.5395 2.65219C11.6268 2.43014 11.7593 2.26593 11.937 2.15956C12.1146 2.05319 12.3023 2 12.5 2C12.6977 2 12.8854 2.05319 13.063 2.15956C13.2407 2.26593 13.3732 2.43014 13.4605 2.65219L15.8624 8.62136L22.0487 9.18804C22.2884 9.22668 22.4775 9.30885 22.6158 9.43454C22.7541 9.56023 22.86 9.72206 22.9335 9.92001C23.0069 10.1182 23.0196 10.3224 22.9713 10.5325C22.9233 10.7426 22.8118 10.9275 22.6366 11.087L17.9489 15.3415L19.3585 21.6627C19.4179 21.8995 19.4039 22.1156 19.3165 22.3109C19.229 22.5062 19.1046 22.6645 18.9436 22.7857C18.7828 22.9066 18.603 22.9767 18.4045 22.996C18.2059 23.0153 18.0076 22.9644 17.8097 22.8433L12.5 19.4861Z" fill="#43484B"/>
</svg>
