<svg width="20" height="20" viewBox="0 0 20 20" fill="none" xmlns="http://www.w3.org/2000/svg">
    <path d="M9.65862 15.7992L5.33612 18.4058C5.17501 18.4999 5.01362 18.5395 4.85195 18.5245C4.69029 18.5095 4.54399 18.455 4.41306 18.3611C4.28195 18.267 4.18075 18.1442 4.10945 17.9925C4.03834 17.8408 4.02695 17.6731 4.07529 17.4892L5.22279 12.5811L1.40668 9.27778C1.26408 9.1539 1.17325 9.01038 1.13418 8.84723C1.09492 8.68408 1.10519 8.52556 1.16501 8.37167C1.22482 8.21797 1.31103 8.09232 1.42362 7.99473C1.53621 7.89714 1.6901 7.83334 1.88529 7.80334L6.9214 7.36334L8.87668 2.72862C8.94779 2.55621 9.05566 2.42871 9.20029 2.34612C9.34492 2.26352 9.49769 2.22223 9.65862 2.22223C9.81955 2.22223 9.97232 2.26352 10.117 2.34612C10.2616 2.42871 10.3695 2.55621 10.4406 2.72862L12.3958 7.36334L17.432 7.80334C17.6271 7.83334 17.781 7.89714 17.8936 7.99473C18.0062 8.09232 18.0924 8.21797 18.1522 8.37167C18.212 8.52556 18.2223 8.68408 18.1831 8.84723C18.144 9.01038 18.0532 9.1539 17.9106 9.27778L14.0945 12.5811L15.242 17.4892C15.2903 17.6731 15.2789 17.8408 15.2078 17.9925C15.1365 18.1442 15.0353 18.267 14.9042 18.3611C14.7733 18.455 14.627 18.5095 14.4653 18.5245C14.3036 18.5395 14.1422 18.4999 13.9811 18.4058L9.65862 15.7992Z" fill="#E6AE06"/>
</svg>
