<svg width="26" height="31" viewBox="0 0 26 31" fill="none" xmlns="http://www.w3.org/2000/svg">
    <path d="M15.7552 0.619049C17.6031 0.619049 18.9379 1.23137 19.7237 2.43806C20.7459 4.00825 20.2571 5.09068 19.6674 5.7221L19.2756 6.11803L19.1794 8.10277C19.4213 8.19511 19.6372 8.34565 19.8076 8.54167C20.1009 8.87897 20.2365 9.32965 20.181 9.77446L19.9191 11.882C19.8395 12.5259 19.3785 13.0392 18.7835 13.2079C18.5656 14.715 17.8305 16.1843 16.7568 17.2541L17.0985 18.6291L21.112 19.6389C22.3866 19.958 23.5182 20.6976 24.3264 21.7392C24.9968 22.6032 25.4122 23.6338 25.5337 24.7143L25.5715 35.1905H0.42865L0.467526 24.7143C0.741342 22.2802 2.48116 20.2447 4.88921 19.6409L8.9027 18.6311L9.26691 17.163C8.25497 16.1111 7.55733 14.6888 7.34048 13.2396C6.68483 13.1109 6.16594 12.5701 6.08006 11.883L5.81816 9.77549C5.79059 9.553 5.81073 9.32677 5.87647 9.11254C5.94221 8.89836 6.05237 8.70056 6.19976 8.53246C6.38804 8.31687 6.6316 8.1574 6.90363 8.07106C6.8282 7.42813 6.71436 6.36213 6.71436 5.88886C6.71441 3.8547 7.32212 1.76873 11.7847 1.67485C13.3476 0.618811 15.026 0.619049 15.7552 0.619049Z" fill="#0866FF"/>
</svg>
