<svg width="20" height="20" viewBox="0 0 20 20" fill="none" xmlns="http://www.w3.org/2000/svg">
    <path fill-rule="evenodd" clip-rule="evenodd" d="M19.7183 6.22582H15.6013C13.6854 6.22919 12.1333 7.7425 12.1298 9.61055C12.1272 11.4828 13.681 13.0029 15.6013 13.0054H19.7218V13.3028C19.7218 16.5688 17.7419 18.5 14.3914 18.5H5.60858C2.25722 18.5 0.277344 16.5688 0.277344 13.3028V6.18959C0.277344 2.92366 2.25722 1 5.60858 1H14.388C17.7385 1 19.7183 2.92366 19.7183 6.18959V6.22582ZM4.88483 6.21825H10.3682H10.3716H10.3785C10.789 6.21656 11.1209 5.89047 11.1192 5.48939C11.1174 5.08916 10.7821 4.7656 10.3716 4.76728H4.88483C4.47693 4.76897 4.14594 5.09169 4.14421 5.49024C4.14248 5.89047 4.47434 6.21656 4.88483 6.21825Z" fill="#0866FF"/>
    <path d="M13.925 10.0384C14.1284 10.9632 14.9391 11.6138 15.8648 11.5969H19.0245C19.4096 11.5969 19.722 11.2779 19.722 10.8837V8.42242C19.7212 8.02899 19.4096 7.70917 19.0245 7.70833H15.7904C14.7375 7.71171 13.887 8.58571 13.8887 9.66276C13.8887 9.78883 13.9011 9.91489 13.925 10.0384Z" fill="#1B3F7B"/>
    <circle cx="15.8336" cy="9.65276" r="0.972222" fill="white"/>
</svg>
